<svg width="342" height="512" viewBox="0 0 342 512" fill="none" xmlns="http://www.w3.org/2000/svg">
<path fill-rule="evenodd" clip-rule="evenodd" d="M240.947 325.143C210.257 338.898 176.163 343.276 142.976 337.725C109.789 332.173 78.9989 316.941 54.5001 293.954C30.0014 270.967 12.8939 241.257 5.34099 208.583C-2.2119 175.908 0.129012 141.736 12.0677 110.387C24.0064 79.0378 45.0067 51.9202 72.413 32.4632C99.8193 13.0061 132.401 2.08349 166.037 1.0765C199.674 0.069505 232.854 9.02337 261.384 26.8058C289.913 44.5883 312.509 70.4007 326.316 100.979C344.807 141.987 346.202 188.633 330.195 230.666C314.187 272.699 282.087 306.68 240.947 325.143Z" stroke="#00AEEF" stroke-miterlimit="10"/>
<path d="M81.198 268.24C76.9665 267.488 74.8507 264.971 74.8179 260.608C74.9154 257.135 75.603 253.704 76.8517 250.46C78.0818 246.832 79.7055 243.384 81.28 239.903C81.3923 239.683 81.5183 239.47 81.6573 239.265C81.9197 240.507 82.2149 241.57 82.3625 242.648C82.5819 244.321 83.4193 245.853 84.7113 246.944C86.0033 248.035 87.657 248.607 89.3495 248.548C93.2806 248.498 97.1579 247.63 100.732 245.998C108.558 242.702 116.031 238.629 123.038 233.84C130.782 228.77 138.264 223.316 145.458 217.498C150.543 213.445 155.529 209.267 160.416 204.963C165.534 200.469 170.569 195.91 175.506 191.236C178.95 187.968 182.328 184.699 185.724 181.431C189.857 177.378 193.924 173.26 197.861 169.06C202.77 163.95 207.57 158.726 212.261 153.388C218.297 146.541 224.185 139.563 229.81 132.356C235.969 124.604 241.734 116.548 247.081 108.219C249.18 104.95 251.198 101.518 253.264 98.1682C253.575 97.5653 254.024 97.0444 254.576 96.6484C254.461 98.1896 254.152 99.7103 253.658 101.175C252.057 106.457 249.856 111.54 247.097 116.324C243.817 122.338 240.209 128.123 236.387 133.778C231.385 141.18 226.087 148.338 220.511 155.316C216.656 160.121 212.687 164.795 208.685 169.485C208.341 169.893 208.341 170.122 208.685 170.482L220.658 181.774L226.891 187.641L240.356 200.388L251.722 211.075L256.643 215.7C256.936 215.899 257.151 216.194 257.25 216.534C256.102 216.632 254.97 216.779 253.838 216.795C237.929 217.253 222.003 217.122 206.078 217.236C205.864 217.254 205.649 217.225 205.448 217.152C205.247 217.078 205.065 216.962 204.913 216.811C202.108 214.197 199.287 211.615 196.466 209.033C192.218 205.143 187.954 201.254 183.723 197.332C183.296 196.94 183.017 197.005 182.64 197.332C181.459 198.508 180.246 199.636 179.081 200.829C174.784 205.187 170.41 209.452 165.96 213.625C159.946 219.246 153.779 224.694 147.459 229.967C137.684 238.263 127.444 246 116.789 253.14C111.787 256.518 106.584 259.591 101.208 262.34C96.7838 264.719 92.0933 266.567 87.2337 267.848C86.4423 267.929 85.6616 268.093 84.9047 268.338H82.1493C81.8541 268.158 81.4933 268.436 81.198 268.24Z" fill="#36ABC7"/>
<path d="M165.632 120.687C167.912 118.122 170.47 115.785 172.98 113.546C178.933 108.006 185.002 102.629 191.251 97.4325C202.582 87.8044 214.597 79.0057 227.202 71.1055C233.173 67.2905 239.527 64.1082 246.162 61.6108C249.116 60.43 252.263 59.804 255.446 59.7642C257.427 59.7699 259.352 60.4245 260.924 61.6272V61.8069C257.09 64.7289 253.081 67.4141 248.918 69.8472C225.212 84.5441 201.431 99.2138 177.572 113.856C173.701 116.259 169.765 118.563 165.845 120.916C165.648 120.965 165.599 120.883 165.632 120.687Z" fill="#194A9F"/>
<path d="M81.1981 268.24C81.5261 268.24 81.8705 268.109 82.1493 268.403H81.2145C81.2172 268.348 81.2116 268.293 81.1981 268.24Z" fill="white"/>
<path d="M83.3302 232.548C83.1235 231.872 83.1235 231.149 83.3302 230.473C84.5019 225.301 86.3549 220.306 88.8411 215.618C93.9581 205.704 99.8767 196.222 106.538 187.265C113.853 177.084 121.726 167.36 129.926 157.849C131.452 156.084 132.961 154.319 134.519 152.587C134.929 152.129 134.912 151.884 134.519 151.476C126.777 144.35 119.058 137.214 111.36 130.068C107.178 126.178 102.979 122.305 98.813 118.399L85.9544 106.372C85.6045 106.103 85.2805 105.802 84.9867 105.473C86.9368 105.056 88.9304 104.875 90.924 104.933C106.751 104.525 122.579 104.574 138.488 104.492C138.716 104.484 138.943 104.524 139.155 104.608C139.367 104.693 139.558 104.82 139.718 104.982L157.989 122.354C169.339 133.058 180.672 143.762 191.89 154.613C193.531 156.247 195.171 157.882 196.926 159.516C197.664 160.202 197.598 160.643 196.926 161.33C193.547 164.909 190.152 168.504 186.658 171.985C182.837 175.793 179.065 179.649 175.178 183.326C174.325 184.111 173.439 184.862 172.635 185.679C172.11 186.219 171.75 186.121 171.241 185.679C168.797 183.375 166.321 181.104 163.861 178.832L141.752 158.339C141.309 157.947 141.128 157.963 140.735 158.339C135.519 164.157 130.205 169.893 125.088 175.809C112.948 189.579 101.727 204.127 91.4981 219.36C88.9887 223.184 86.7745 227.172 84.4619 231.11C84.199 231.669 83.812 232.161 83.3302 232.548Z" fill="#194A9F"/>
<path d="M165.632 120.688L165.845 120.916C165.777 121.013 165.686 121.092 165.58 121.146C165.474 121.2 165.357 121.227 165.238 121.227C165.238 120.916 165.452 120.818 165.632 120.688Z" fill="#9AAEDA"/>
<path d="M207.422 329.081C215.229 332.349 223.299 331.124 231.139 329.865C249.523 326.795 267.073 319.974 282.688 309.83C289.987 305.189 291.643 299.91 288.068 292.393C287.711 291.86 287.572 291.212 287.679 290.58C287.786 289.949 288.13 289.381 288.642 288.994C298.253 278.159 307.798 267.275 317.393 256.424C320.18 253.237 323.657 250.723 327.562 249.07C330.362 247.811 333.523 247.597 336.468 248.466C341.897 250.1 342.635 252.077 339.387 256.637C330.787 268.51 323.111 281.021 316.426 294.06C306.585 313.311 291.676 327.398 274.504 339.703C251.903 355.898 227.366 367.125 199.304 369.642C175.627 371.794 151.814 367.376 130.5 356.879C114.214 349.034 97.4517 342.841 79.3283 342.171C71.8001 341.909 64.1407 341.354 56.5633 342.302C47.3949 343.446 40.4244 340.177 36.3897 332.954C32.3549 325.731 33.1094 317.56 39.1123 310.484C61.8117 283.699 90.1695 272.554 125.236 279.123C141.637 282.179 157.694 286.036 172.799 292.932C188.479 300.139 204.503 301.103 221.068 298.783C230.597 297.41 240.012 295.335 249.508 293.88C256.069 292.818 262.629 292.083 269.091 291.282C270.6 291.102 272.126 291.102 273.635 291.282C277.899 291.805 281.72 293.325 282.721 297.982C283.721 302.639 280.868 305.336 277.341 307.379C269.989 311.506 262.386 315.174 254.576 318.361C239.599 324.614 223.678 328.331 207.472 329.359H206.652L207.422 329.081Z" fill="#194A9F"/>
<path d="M221.003 292.671C236.338 276.983 250.984 261.915 265.729 246.913C270.127 242.233 275.581 238.665 281.638 236.504C284.011 235.562 286.631 235.435 289.085 236.144C294.218 237.778 294.71 240.377 291.036 244.315C278.877 257.084 266.79 269.934 254.773 282.866C252.072 286.087 248.267 288.195 244.096 288.782C236.65 289.779 229.253 291.2 221.003 292.671Z" fill="#194A9F"/>
<path d="M190.529 292.671C205.077 278.143 217.854 262.945 232.861 249.904C236.264 247.112 240.157 244.974 244.342 243.596C246.399 242.781 248.665 242.649 250.804 243.22C251.893 243.396 252.927 243.817 253.828 244.451C254.729 245.085 255.473 245.916 256.003 246.881C257.069 249.446 254.363 250.345 253.182 251.685C241.39 264.366 229.367 276.835 217.706 289.648C216.417 291.168 214.785 292.362 212.943 293.132C211.101 293.902 209.103 294.226 207.111 294.076C201.551 294.135 195.999 293.665 190.529 292.671Z" fill="#194A9F"/>
<path d="M257.168 286.134C271.076 274.025 281.228 259.611 294.415 248.106C298.601 244.177 303.765 241.435 309.373 240.164C310.765 239.803 312.223 239.775 313.628 240.081C315.033 240.388 316.346 241.021 317.459 241.929C319.099 243.334 320.181 244.723 318.082 246.831C306.929 258.271 297.728 271.344 287.1 283.356C284.869 285.856 282.901 287.196 279.424 286.003C272.404 283.683 265.188 285.693 257.168 286.134Z" fill="#194A9F"/>
<path d="M47.429 449.998L38.749 437.288C37.757 435.842 36.889 434.705 36.145 433.878C35.401 433.01 34.4296 432.246 33.231 431.584C32.0323 430.923 30.565 430.551 28.829 430.468V429.228H36.269C38.0876 429.228 39.617 429.828 40.857 431.026C42.097 432.184 43.461 433.858 44.949 436.048L51.149 445.348L63.549 429.228H66.649L52.699 447.518L62.619 462.088C63.9003 463.99 65.2643 465.581 66.711 466.862C68.199 468.102 69.8316 468.784 71.609 468.908V470.148H65.099C63.3216 470.148 61.751 469.528 60.387 468.288C59.023 467.007 57.7003 465.354 56.419 463.328L48.979 452.168L35.029 470.148H31.929L47.429 449.998ZM77.3125 436.668C77.3125 434.56 77.0231 433.01 76.4445 432.018C75.8658 430.985 74.7085 430.468 72.9725 430.468H71.7325V429.228H87.8525C92.3578 429.228 96.2638 429.972 99.5705 431.46C102.918 432.948 104.592 435.821 104.592 440.078C104.592 442.021 103.931 443.778 102.608 445.348C101.286 446.919 99.2605 448.159 96.5325 449.068C100.335 449.688 102.98 450.825 104.468 452.478C105.998 454.09 106.762 456.26 106.762 458.988C106.762 463.163 105.109 466.077 101.802 467.73C98.5371 469.342 94.5071 470.148 89.7125 470.148H77.3125V436.668ZM88.7825 448.138C90.4771 448.138 92.0685 447.828 93.5565 447.208C95.0858 446.547 96.3258 445.596 97.2765 444.356C98.2271 443.075 98.7025 441.546 98.7025 439.768C98.7025 437.908 98.1445 436.358 97.0285 435.118C95.9125 433.837 94.4865 432.907 92.7505 432.328C91.0558 431.708 89.3198 431.398 87.5425 431.398C86.0958 431.398 84.5458 431.605 82.8925 432.018V448.138H88.7825ZM88.7825 467.978C92.5438 467.978 95.4371 467.234 97.4625 465.746C99.5291 464.258 100.562 462.109 100.562 459.298C100.562 456.488 99.5498 454.338 97.5245 452.85C95.5405 451.362 92.6265 450.618 88.7825 450.618H82.8925V467.11C84.8765 467.689 86.8398 467.978 88.7825 467.978ZM126.793 471.202C124.52 471.202 122.288 470.892 120.097 470.272C117.906 469.652 116.108 468.764 114.703 467.606C113.339 466.449 112.657 465.126 112.657 463.638V457.004H113.773C114.476 461.138 115.84 464.134 117.865 465.994C119.89 467.813 122.68 468.722 126.235 468.722C128.467 468.722 130.368 468.164 131.939 467.048C133.551 465.932 134.357 464.382 134.357 462.398C134.357 460.662 133.82 459.154 132.745 457.872C131.67 456.591 129.934 455.248 127.537 453.842L119.911 449.316C117.266 447.746 115.385 446.154 114.269 444.542C113.194 442.93 112.657 440.967 112.657 438.652C112.657 435.47 113.752 432.928 115.943 431.026C118.175 429.084 121.089 428.112 124.685 428.112C126.793 428.112 128.88 428.422 130.947 429.042C133.014 429.621 134.708 430.489 136.031 431.646C137.395 432.762 138.077 434.064 138.077 435.552V442.186H136.961C136.258 438.053 134.915 435.098 132.931 433.32C130.988 431.502 128.24 430.592 124.685 430.592C122.784 430.592 121.11 431.171 119.663 432.328C118.216 433.486 117.493 434.994 117.493 436.854C117.493 438.549 118.01 439.954 119.043 441.07C120.118 442.186 121.895 443.488 124.375 444.976L132.001 449.502C134.812 451.197 136.796 452.768 137.953 454.214C139.11 455.661 139.689 457.5 139.689 459.732C139.689 463.204 138.532 465.994 136.217 468.102C133.902 470.169 130.761 471.202 126.793 471.202ZM179.815 471.388C175.971 471.388 172.582 470.458 169.647 468.598C166.754 466.738 164.522 464.217 162.951 461.034C161.381 457.81 160.595 454.235 160.595 450.308C160.595 446.258 161.443 442.517 163.137 439.086C164.873 435.656 167.209 432.948 170.143 430.964C173.119 428.98 176.343 427.988 179.815 427.988C183.122 427.988 186.015 428.464 188.495 429.414C191.017 430.324 192.877 431.502 194.075 432.948C194.778 433.816 195.212 434.974 195.377 436.42C195.543 437.826 195.625 439.768 195.625 442.248H194.385C193.6 438.239 192.153 435.284 190.045 433.382C187.937 431.44 185.147 430.468 181.675 430.468C177.211 430.468 173.615 432.039 170.887 435.18C168.159 438.322 166.795 443.364 166.795 450.308C166.795 453.574 167.312 456.612 168.345 459.422C169.42 462.233 171.073 464.527 173.305 466.304C175.537 468.04 178.327 468.908 181.675 468.908C184.693 468.908 187.317 468.185 189.549 466.738C191.823 465.292 193.848 463.122 195.625 460.228L196.865 461.158C194.964 464.878 192.608 467.524 189.797 469.094C187.028 470.624 183.701 471.388 179.815 471.388ZM237.664 470.458C235.68 470.458 233.717 469.921 231.774 468.846C229.831 467.73 228.281 465.581 227.124 462.398L225.574 458.368H208.214L203.254 470.148H200.464L217.824 429.228H219.684L233.324 462.398C234.357 464.796 235.329 466.449 236.238 467.358C237.147 468.226 238.449 468.743 240.144 468.908V470.148C239.4 470.355 238.573 470.458 237.664 470.458ZM209.144 455.888H224.334L216.894 437.908L209.144 455.888ZM272.307 470.768C270.117 470.768 268.195 470.128 266.541 468.846C264.929 467.524 263.131 465.168 261.147 461.778L254.947 451.238H250.607V470.148H245.027V436.668C245.027 434.56 244.738 433.01 244.159 432.018C243.581 430.985 242.423 430.468 240.687 430.468H239.447V429.228H255.567C259.494 429.228 263.049 430.014 266.231 431.584C269.455 433.114 271.067 436.048 271.067 440.388C271.067 445.886 267.761 449.399 261.147 450.928L267.657 461.778C269.187 464.341 270.551 466.139 271.749 467.172C272.989 468.164 274.415 468.743 276.027 468.908V470.148C275.655 470.314 275.118 470.458 274.415 470.582C273.754 470.706 273.051 470.768 272.307 470.768ZM255.257 449.068C256.539 449.068 257.923 448.758 259.411 448.138C260.941 447.518 262.222 446.547 263.255 445.224C264.33 443.902 264.867 442.29 264.867 440.388C264.867 438.363 264.33 436.689 263.255 435.366C262.222 434.002 260.941 433.01 259.411 432.39C257.923 431.729 256.539 431.398 255.257 431.398C253.811 431.398 252.261 431.605 250.607 432.018V448.448C252.261 448.862 253.811 449.068 255.257 449.068ZM281.9 436.668C281.9 434.56 281.611 433.01 281.032 432.018C280.454 430.985 279.296 430.468 277.56 430.468H276.32V429.228H302.732C306.246 429.228 308.002 430.882 308.002 434.188V438.838H306.762C306.762 434.085 304.179 431.708 299.012 431.708H287.48V447.828H304.22V450.308H287.48V467.668H298.33C301.182 467.668 303.414 467.152 305.026 466.118C306.638 465.085 307.92 463.328 308.87 460.848L310.11 461.158L307.94 467.048C307.196 469.115 305.646 470.148 303.29 470.148H281.9V436.668Z" fill="#194A9F"/>
</svg>
